HIERARCHY
ROOT Hips
{
	OFFSET 0.00000 0.00000 0.00000
	CHANNELS 6 Xposition Yposition Zposition Zrotation Yrotation Xrotation 
	JOINT LHipJoint
	{
		OFFSET 0 0 0
		CHANNELS 3 Zrotation Yrotation Xrotation
		JOINT LeftUpLeg
		{
			OFFSET 1.30186 -1.90722 0.65024
			CHANNELS 3 Zrotation Yrotation Xrotation
			JOINT LeftLeg
			{
				OFFSET 2.56413 -7.04489 0.00000
				CHANNELS 3 Zrotation Yrotation Xrotation
				JOINT LeftFoot
				{
					OFFSET 2.79321 -7.67428 0.00000
					CHANNELS 3 Zrotation Yrotation Xrotation
					JOINT LeftToeBase
					{
						OFFSET 0.15723 -0.43198 2.08537
						CHANNELS 3 Zrotation Yrotation Xrotation
						End Site
						{
							OFFSET 0.00000 -0.00000 1.07411
						}
					}
				}
			}
		}
	}
	JOINT RHipJoint
	{
		OFFSET 0 0 0
		CHANNELS 3 Zrotation Yrotation Xrotation
		JOINT RightUpLeg
		{
			OFFSET -1.28627 -1.90723 0.65024
			CHANNELS 3 Zrotation Yrotation Xrotation
			JOINT RightLeg
			{
				OFFSET -2.56567 -7.04913 0.00000
				CHANNELS 3 Zrotation Yrotation Xrotation
				JOINT RightFoot
				{
					OFFSET -2.75597 -7.57198 0.00000
					CHANNELS 3 Zrotation Yrotation Xrotation
					JOINT RightToeBase
					{
						OFFSET -0.17500 -0.48081 2.22901
						CHANNELS 3 Zrotation Yrotation Xrotation
						End Site
						{
							OFFSET -0.00000 -0.00000 1.14762
						}
					}
				}
			}
		}
	}
	JOINT LowerBack
	{
		OFFSET 0 0 0
		CHANNELS 3 Zrotation Yrotation Xrotation
		JOINT Spine
		{
			OFFSET -0.04522 2.07467 -0.16566
			CHANNELS 3 Zrotation Yrotation Xrotation
			JOINT Spine1
			{
				OFFSET -0.01178 2.08825 -0.05393
				CHANNELS 3 Zrotation Yrotation Xrotation
				JOINT Neck
				{
					OFFSET 0 0 0
					CHANNELS 3 Zrotation Yrotation Xrotation
					JOINT Neck1
					{
						OFFSET -0.05182 1.80489 0.16014
						CHANNELS 3 Zrotation Yrotation Xrotation
						JOINT Head
						{
							OFFSET 0.14739 1.78840 -0.33342
							CHANNELS 3 Zrotation Yrotation Xrotation
							End Site
							{
								OFFSET 0.04364 1.83899 -0.13460
							}
						}
					}
				}
				JOINT LeftShoulder
				{
					OFFSET 0 0 0
					CHANNELS 3 Zrotation Yrotation Xrotation
					JOINT LeftArm
					{
						OFFSET 3.01264 1.29090 -0.06579
						CHANNELS 3 Zrotation Yrotation Xrotation
						JOINT LeftForeArm
						{
							OFFSET 5.55680 -0.00000 0.00000
							CHANNELS 3 Zrotation Yrotation Xrotation
							JOINT LeftHand
							{
								OFFSET 3.63979 -0.00000 -0.00000
								CHANNELS 3 Zrotation Yrotation Xrotation
								JOINT LeftFingerBase
								{
									OFFSET 0 0 0
									CHANNELS 3 Zrotation Yrotation Xrotation
									JOINT LeftHandIndex1
									{
										OFFSET 0.56942 -0.00000 -0.00000
										CHANNELS 3 Zrotation Yrotation Xrotation
										End Site
										{
											OFFSET 0.45908 -0.00000 -0.00000
										}
									}
								}
								JOINT LThumb
								{
									OFFSET 0 0 0
									CHANNELS 3 Zrotation Yrotation Xrotation
									End Site
									{
										OFFSET 0.46609 -0.00000 0.46609
									}
								}
							}
						}
					}
				}
				JOINT RightShoulder
				{
					OFFSET 0 0 0
					CHANNELS 3 Zrotation Yrotation Xrotation
					JOINT RightArm
					{
						OFFSET -3.15796 1.37283 -0.36748
						CHANNELS 3 Zrotation Yrotation Xrotation
						JOINT RightForeArm
						{
							OFFSET -5.34339 -0.00000 0.00000
							CHANNELS 3 Zrotation Yrotation Xrotation
							JOINT RightHand
							{
								OFFSET -3.65101 -0.00000 -0.00000
								CHANNELS 3 Zrotation Yrotation Xrotation
								JOINT RightFingerBase
								{
									OFFSET 0 0 0
									CHANNELS 3 Zrotation Yrotation Xrotation
									JOINT RightHandIndex1
									{
										OFFSET -0.69425 -0.00000 -0.00000
										CHANNELS 3 Zrotation Yrotation Xrotation
										End Site
										{
											OFFSET -0.55972 -0.00000 -0.00000
										}
									}
								}
								JOINT RThumb
								{
									OFFSET 0 0 0
									CHANNELS 3 Zrotation Yrotation Xrotation
									End Site
									{
										OFFSET -0.56827 -0.00000 0.56827
									}
								}
							}
						}
					}
				}
			}
		}
	}
}
MOTION
Frames: 5
Frame Time: .0083333
-0.8898 18.4854 6.3594 -178.3640 -3.6969 -172.2900 0.0000 0.0000 0.0000 -16.3032 1.2534 -24.4239 10.3649 17.6100 60.7012 0.1195 1.3557 -7.1752 0.9011 -6.0496 -16.9284 0.0000 0.0000 0.0000 25.0372 13.8656 -12.8150 -2.3115 -9.4868 27.3302 -0.5160 2.0776 -13.0125 -0.6258 -5.0621 14.0857 -0.2631 -2.1836 2.6438 4.0559 -3.1817 2.2958 4.3708 -1.7330 1.1253 -7.7768 -9.3232 -6.7513 6.9297 -12.2903 19.2525 2.4249 -5.5369 7.9771 0.0000 -0.0000 0.0000 -90.0958 3.7745 10.4526 12.0016 -19.8071 -2.1028 -0.0000 -0.0000 12.9301 17.1456 9.8037 3.0070 -7.1250 0.0000 -0.0000 -8.6299 40.0840 1.0549 0.0000 -0.0000 0.0000 89.3728 -7.0050 -24.0970 -18.8551 29.2382 -4.9599 0.0000 -0.0000 -43.9287 -42.0862 27.3963 -22.5663 7.1250 -0.0000 -0.0000 -6.8024 4.7294 -7.3905
-0.9102 18.4681 6.2040 -178.4160 -3.4579 -172.2160 0.0000 0.0000 0.0000 -16.1547 0.5931 -25.4377 10.2786 17.5636 60.4156 0.1776 0.9723 -8.3767 0.6941 -5.3259 -14.8406 0.0000 0.0000 0.0000 25.1655 13.2762 -12.5134 -2.3304 -9.5228 27.4449 -0.4976 1.8437 -12.8159 -0.2937 -3.4851 9.6324 -0.1960 -2.1394 2.6830 3.9460 -3.1189 2.3592 4.2182 -1.6990 1.1536 -7.6382 -9.2551 -6.9429 6.6917 -12.1812 19.0189 2.3298 -5.5104 7.8999 -0.0000 0.0000 0.0000 -90.1093 3.8522 9.0850 11.4945 -19.0422 -1.9342 -0.0000 -0.0000 14.0387 17.1272 9.7465 2.9863 -7.1250 0.0000 -0.0000 -8.6356 40.0235 1.0685 -0.0000 0.0000 0.0000 89.7183 -7.4916 -25.1055 -18.8769 29.2655 -4.9705 0.0000 -0.0000 -44.5266 -41.8012 27.3922 -22.3610 7.1250 -0.0000 -0.0000 -6.6433 4.6154 -7.2033
-0.9314 18.4497 6.0442 -178.3630 -3.0198 -172.1070 0.0000 0.0000 0.0000 -15.9363 0.0441 -26.4410 10.1353 17.4852 59.9395 0.2335 0.9402 -9.5187 0.8262 -5.7994 -16.2034 0.0000 0.0000 0.0000 25.3853 12.8868 -12.2066 -2.3597 -9.5782 27.6212 -0.5737 2.2679 -13.7108 -0.5266 -4.6504 12.9140 -0.0680 -2.0180 2.7169 3.8358 -2.9422 2.3126 4.0323 -1.6024 1.0605 -7.7032 -9.1200 -6.7387 6.7648 -12.0070 18.8035 2.3939 -5.4377 7.7871 0.0000 -0.0000 0.0000 -90.1235 4.3786 7.9445 11.2569 -18.6810 -1.8574 -0.0000 -0.0000 14.5114 17.5792 11.2001 3.5214 -7.1250 0.0000 -0.0000 -8.5107 41.5620 0.7276 0.0000 -0.0000 0.0000 90.1357 -8.1845 -25.8415 -18.9050 29.3004 -4.9843 0.0000 -0.0000 -44.8612 -41.5606 27.4605 -22.2372 7.1250 -0.0000 -0.0000 -6.4912 4.6028 -7.0350
-0.9517 18.4374 5.8846 -178.1340 -2.4486 -171.9700 0.0000 0.0000 0.0000 -15.5324 -0.3449 -27.5147 9.9390 17.3754 59.2843 0.2800 0.9916 -10.4063 1.2274 -7.0263 -19.7934 0.0000 0.0000 0.0000 25.7580 12.7779 -11.8864 -2.3988 -9.6515 27.8553 -0.6113 2.2280 -14.1761 -0.4496 -4.3019 11.9275 0.1766 -1.8106 2.7744 3.7253 -2.6477 2.2412 3.7799 -1.4451 0.9170 -7.4851 -9.0036 -6.3617 6.7559 -11.8851 18.4020 2.3903 -5.3861 7.5627 0.0000 -0.0000 0.0000 -90.0251 5.0068 6.8704 11.1660 -18.5422 -1.8283 -0.0000 -0.0000 14.2620 17.8015 12.3341 3.9238 -7.1250 0.0000 -0.0000 -8.5404 42.7537 0.4772 0.0000 -0.0000 0.0000 90.6853 -8.8100 -26.5548 -18.9480 29.3540 -5.0053 0.0000 -0.0000 -44.9266 -41.5380 27.2143 -22.0550 7.1250 -0.0000 -0.0000 -6.5391 4.3100 -7.0567
-0.9708 18.4189 5.7328 -178.1010 -1.9767 -171.9310 0.0000 0.0000 0.0000 -15.3162 -0.7111 -28.3966 9.6761 17.2236 58.4002 0.3427 0.6940 -11.3304 1.2625 -7.1225 -20.0787 0.0000 0.0000 0.0000 25.9514 12.7552 -11.4091 -2.4342 -9.7174 28.0662 -0.6053 1.7454 -14.2026 -0.2887 -3.4553 9.5490 0.1530 -1.7383 3.0064 3.6776 -2.5510 2.2993 3.7500 -1.3979 0.8395 -7.3612 -8.8087 -6.4563 6.5985 -11.6191 18.0016 2.3463 -5.2855 7.4097 -0.0000 -0.0000 0.0000 -90.1418 5.2688 5.3177 11.0170 -18.3143 -1.7813 -0.0000 -0.0000 13.9508 17.8405 12.7654 4.0677 -7.1250 0.0000 -0.0000 -8.5960 43.2025 0.3844 -0.0000 -0.0000 0.0000 90.8744 -9.1997 -26.8182 -18.9880 29.4038 -5.0250 0.0000 -0.0000 -45.2021 -42.2491 26.8860 -22.3305 7.1250 -0.0000 -0.0000 -7.0207 4.1996 -7.5714
